<?xml version="1.0" encoding="UTF-8"?>
<svg width="59px" height="59px" viewBox="0 0 59 59" version="1.1" xmlns="http://www.w3.org/2000/svg" xmlns:xlink="http://www.w3.org/1999/xlink">
    <!-- Generator: Sketch 50.2 (55047) - http://www.bohemiancoding.com/sketch -->
    <title>Gaika_Logo</title>
    <desc>Created with Sketch.</desc>
    <defs></defs>
    <g id="Page-1" stroke="none" stroke-width="1" fill="none" fill-rule="evenodd">
        <g id="MA_Галочка" transform="translate(-557.000000, -441.000000)" fill="#518ECC" fill-rule="nonzero">
            <g id="Gaika_Logo" transform="translate(557.000000, 441.000000)">
                <path d="M14.1961033,6.94333864 C14.2176047,6.29437673 14.1398638,5.64593835 13.9655745,5.02049301 C13.8983369,4.76090885 13.8310994,4.49491521 13.7894761,4.23533105 C13.6939976,3.77089367 13.882578,3.29397427 14.2697444,3.02073357 C14.5018758,2.84766757 14.7494625,2.69640378 15.0093576,2.56886484 C16.3856865,1.81161678 17.8216902,1.16851672 19.3029561,0.646019222 C19.7928298,0.485782087 20.2634927,0.325544951 20.7853842,0.171717302 C21.0936897,0.0612394969 21.4184588,0.00381067565 21.7459208,0.00186593819 C22.1385968,-0.020515768 22.5154439,0.159618908 22.7448789,0.479372601 C22.9017665,0.716523561 23.0650577,0.953674521 23.1963311,1.21966817 C23.4828119,1.72165775 23.8254766,2.18935888 24.2177016,2.61373124 C25.1657464,3.62188843 26.411067,4.30014755 27.771687,4.54939584 C29.2431956,4.84688901 30.7657827,4.76975276 32.1997606,4.32506385 C33.066344,4.04645158 33.858792,3.57536454 34.5178556,2.94702448 C35.1259469,2.36163101 35.6448381,1.69001335 36.0579159,0.953674521 C36.1374047,0.809196465 36.2261739,0.670032054 36.3236644,0.53705797 C36.5419249,0.222903748 36.901948,0.0379213608 37.284201,0.0435275933 C37.5513925,0.0390745997 37.8178062,0.0736215737 38.0750428,0.14607936 C38.7570237,0.331954437 39.4165922,0.559491169 40.0825642,0.787027901 C41.4609681,1.30606584 42.803347,1.9163144 44.1008089,2.61373124 C44.4093469,2.76518923 44.6915124,2.96537617 44.9364758,3.20660864 C45.1322199,3.40572507 45.246436,3.67095086 45.2566546,3.95010895 C45.2601287,4.15464798 45.2342504,4.35862708 45.1798117,4.55580532 C45.083758,4.96280764 44.9813008,5.37301471 44.9076597,5.78642652 C44.6664745,7.09185334 44.8318952,8.43993334 45.3815244,9.64814148 C45.7038044,10.3588468 46.1360157,11.014251 46.6622398,11.5902156 C47.1955926,12.1927174 47.8034945,12.7247185 48.4712504,13.1733585 C49.3477157,13.7655862 50.3536001,14.1381947 51.4040888,14.2597662 C52.232233,14.3397668 53.0679299,14.2790904 53.8758696,14.0803006 L54.7723704,13.8816066 C55.166388,13.7858465 55.5814994,13.9080507 55.8609785,14.2020809 C56.0849698,14.419482 56.2739799,14.6702865 56.4212915,14.9455812 C57.3625832,16.6888295 58.1314629,18.519958 58.716974,20.4128722 C58.840083,20.7487635 58.9270237,21.0968471 58.9763188,21.4512089 C59.0827048,21.998176 58.8238763,22.5512848 58.3359611,22.819634 C58.0702127,22.9702569 57.8044642,23.1401083 57.5451193,23.2939359 C56.7053391,23.8064175 55.9856935,24.4939359 55.4351406,25.3097191 C54.8538817,26.2008391 54.4817111,27.212105 54.3465325,28.2676966 C54.2761828,28.8524399 54.2568991,29.442209 54.2889003,30.0303051 C54.3264297,31.2121457 54.6564781,32.3661784 55.2494369,33.3888754 C55.7708189,34.280957 56.4892908,35.041749 57.3498102,35.6129669 C57.641173,35.8052514 57.9357375,35.9751028 58.2303021,36.1513636 C58.7754845,36.426782 59.0613267,37.0400554 58.9218884,37.6351595 C58.8017101,38.2915689 58.6205564,38.9353119 58.3807862,39.5580051 C57.9619833,40.7253693 57.479933,41.8690216 56.9367795,42.9838751 C56.7350668,43.4133106 56.5077398,43.8267224 56.277211,44.2337247 C56.1661316,44.4375898 56.0234847,44.6225529 55.8545749,44.7817357 C55.6417192,44.9900296 55.3549946,45.1052863 55.0573296,45.10221 C54.8655825,45.1018427 54.6744586,45.0803483 54.4874112,45.0381152 C54.0944925,44.9292718 53.6957753,44.8426072 53.293144,44.778531 C51.5989147,44.4711335 49.8520514,44.8491822 48.4360307,45.8296866 C47.0977319,46.7160367 46.0323322,47.9577456 45.3591119,49.4157937 C45.1093449,49.9902949 44.9391443,50.5962503 44.8532293,51.2168591 C44.7632891,52.0575406 44.8185252,52.9074436 45.0165205,53.7293774 C45.0549419,53.9152524 45.1061706,54.0979228 45.1509956,54.2837979 C45.1958206,54.4696729 45.2086278,54.5081298 45.2310403,54.6267053 C45.3859752,55.2216067 45.0971394,55.8428404 44.5426558,56.1072965 C42.9885691,56.9919663 41.358818,57.7362732 39.6727353,58.3313879 C39.0964133,58.5300819 38.510486,58.7223665 37.9181551,58.8793989 C37.7848734,58.9187808 37.6489982,58.9487651 37.511528,58.9691317 C36.9993226,59.054846 36.4880572,58.8117709 36.2308125,58.3602306 C35.9938802,57.9756615 35.7569478,57.619935 35.4911993,57.2257517 C35.0043508,56.503954 34.3810996,55.8844826 33.6565745,55.4022531 C32.9740043,54.9558164 32.2137452,54.6416484 31.4153224,54.4760824 C30.149163,54.2027585 28.8393356,54.2027585 27.5731761,54.4760824 C26.0947476,54.7802377 24.7706628,55.5960727 23.833487,56.7802924 C23.5186214,57.1875286 23.2319271,57.6158254 22.9754076,58.0621895 C22.9029941,58.1956905 22.821699,58.3241697 22.7320717,58.4467586 C22.4288012,58.8988633 21.8679844,59.1023956 21.3456972,58.9499032 C20.6773581,58.784204 20.0179844,58.584177 19.3701937,58.3506164 C18.1565132,57.924524 16.9678266,57.4302075 15.8098047,56.8700252 C15.3935722,56.6681264 15.002954,56.437385 14.5963268,56.2290767 L14.4682553,56.1489581 C13.9401744,55.8598037 13.6762325,55.2482143 13.8278976,54.6651622 C13.8646513,54.4757979 13.9116805,54.2885773 13.9687763,54.1043323 C14.1128487,53.5104572 14.1996945,52.9041224 14.2281211,52.2936526 C14.2623705,51.4991837 14.1461289,50.705402 13.8855298,49.9541905 C13.5843554,49.0683988 13.1085586,48.2521503 12.4863481,47.5538382 C11.9443007,46.9064039 11.3175064,46.3350852 10.6229072,45.8553245 C9.819695,45.3083451 8.90760097,44.9420775 7.94941367,44.7817357 L7.64524375,44.7368693 C6.73879771,44.6637978 5.82650912,44.7362856 4.94293416,44.9515871 L4.46266586,45.0701626 C4.3155422,45.1095012 4.16340287,45.1267811 4.01121367,45.1214385 C3.68011106,45.1214686 3.3677848,44.9675297 3.16594147,44.7048219 C2.94765302,44.4867006 2.76311758,44.2371859 2.61843562,43.9645264 C1.89142078,42.6252673 1.26740077,41.2325152 0.751792857,39.7983608 C0.527667654,39.1894597 0.345165703,38.5613302 0.153058386,37.9396101 C0.0724185105,37.6421353 0.053889704,37.3312187 0.0986279798,37.0262584 C0.140411037,36.7041387 0.321993258,36.4168568 0.594905215,36.2410964 C0.780608955,36.1064972 0.982321638,35.9879218 1.17442895,35.8693463 C1.81521126,35.4968052 2.40227277,35.0385826 2.91940375,34.5073306 C3.61703951,33.7536962 4.12425447,32.8438229 4.39863009,31.8538037 C4.57091601,31.1863519 4.67814391,30.5037532 4.71880895,29.8155873 C4.74763142,29.5353788 4.74763142,29.2529485 4.71880895,28.97274 C4.71011381,28.6503591 4.67801129,28.3290377 4.62275529,28.0113172 C4.5201699,27.417198 4.35377939,26.8359056 4.12647806,26.2775514 C3.90015142,25.7220877 3.58551103,25.2069433 3.19475757,24.7520938 C2.66316374,24.1118771 2.02385815,23.5695929 1.30570229,23.1497225 C1.08477887,23.0279423 0.876662613,22.9125715 0.646133833,22.7619486 C0.128654007,22.4664024 -0.116860769,21.8527133 0.0538029392,21.2813575 C0.0909200983,21.0931292 0.137945183,20.9069948 0.194681638,20.7237323 C0.561986409,19.4878519 1.00357079,18.2753175 1.51702034,17.0927588 C1.8371992,16.3524632 2.25663351,15.6121676 2.58961952,14.8718721 C2.72397454,14.6218728 2.8956438,14.3938499 3.09870391,14.1956714 C3.3847453,13.8720216 3.82269404,13.7275366 4.24494424,13.8175117 C4.66758033,13.9168588 5.09021643,14.0194105 5.52565968,14.0995291 C6.58059366,14.316941 7.67237123,14.2762639 8.70823757,13.9809536 C9.57910826,13.7239999 10.3915291,13.2994531 11.0999737,12.731104 C11.8949929,12.1034824 12.5846151,11.352637 13.1427148,10.5070125 C13.6620681,9.71349456 14.0079527,8.81904398 14.1576818,7.88232825 C14.1960964,7.57090794 14.2089466,7.25686018 14.1961033,6.94333864 Z M29.51346,13.71496 C23.1402106,13.6955376 17.3829403,17.5210583 14.9266615,23.4074178 C12.4703827,29.2937773 13.7989084,36.08154 18.2926553,40.6051039 C22.7864023,45.1286677 29.5602377,46.4970268 35.4550547,44.072021 C41.3498717,41.6470151 45.2045689,35.9062973 45.2214349,29.5271605 L45.2214349,29.5047273 C45.2303084,20.8068617 38.2032666,13.7432297 29.51346,13.71496 Z" id="Shape"></path>
            </g>
        </g>
    </g>
</svg>