<?xml version="1.0" encoding="utf-8"?>
<!-- Generator: Adobe Illustrator 22.0.0, SVG Export Plug-In . SVG Version: 6.00 Build 0)  -->
<svg version="1.1" id="Layer_1" xmlns="http://www.w3.org/2000/svg" xmlns:xlink="http://www.w3.org/1999/xlink" x="0px" y="0px"
	 viewBox="0 0 122 39" style="enable-background:new 0 0 122 39;" xml:space="preserve">
<style type="text/css">
	.st0{clip-path:url(#SVGID_2_);}
	.st1{clip-path:url(#SVGID_4_);fill:#0A4D83;}
	.st2{clip-path:url(#SVGID_6_);}
	.st3{clip-path:url(#SVGID_8_);fill:#0A4D83;}
	.st4{clip-path:url(#SVGID_10_);}
	.st5{clip-path:url(#SVGID_12_);fill:#0A4D83;}
	.st6{clip-path:url(#SVGID_14_);}
	.st7{clip-path:url(#SVGID_16_);fill:#0A4D83;}
	.st8{clip-path:url(#SVGID_18_);}
	.st9{clip-path:url(#SVGID_20_);fill:#0A4D83;}
	.st10{clip-path:url(#SVGID_22_);}
	.st11{clip-path:url(#SVGID_24_);fill:#0A4D83;}
	.st12{clip-path:url(#SVGID_26_);}
	.st13{clip-path:url(#SVGID_28_);fill:#0A4D83;}
	.st14{clip-path:url(#SVGID_30_);}
	.st15{clip-path:url(#SVGID_32_);fill:#0A4D83;}
	.st16{clip-path:url(#SVGID_34_);}
	.st17{clip-path:url(#SVGID_36_);fill:#0A4D83;}
	.st18{clip-path:url(#SVGID_38_);}
	.st19{clip-path:url(#SVGID_40_);fill:#0A4D83;}
	.st20{clip-path:url(#SVGID_42_);}
	.st21{clip-path:url(#SVGID_44_);fill:#0A4D83;}
	.st22{clip-path:url(#SVGID_46_);}
	.st23{clip-path:url(#SVGID_48_);fill:#0A4D83;}
	.st24{clip-path:url(#SVGID_50_);}
	.st25{clip-path:url(#SVGID_52_);fill:#0A4D83;}
	.st26{clip-path:url(#SVGID_54_);}
	.st27{clip-path:url(#SVGID_56_);fill:#0A4D83;}
	.st28{clip-path:url(#SVGID_58_);}
	.st29{clip-path:url(#SVGID_60_);fill:#0A4D83;}
	.st30{clip-path:url(#SVGID_62_);}
	.st31{clip-path:url(#SVGID_64_);fill:#0A4D83;}
	.st32{clip-path:url(#SVGID_66_);}
	.st33{clip-path:url(#SVGID_68_);fill:#0A4D83;}
	.st34{clip-path:url(#SVGID_70_);}
	.st35{clip-path:url(#SVGID_72_);fill:#0A4D83;}
	.st36{clip-path:url(#SVGID_74_);}
	.st37{clip-path:url(#SVGID_76_);fill:#0A4D83;}
	.st38{clip-path:url(#SVGID_78_);}
	.st39{clip-path:url(#SVGID_80_);fill:#0A4D83;}
	.st40{clip-path:url(#SVGID_82_);}
	.st41{clip-path:url(#SVGID_84_);fill:#0A4D83;}
	.st42{clip-path:url(#SVGID_86_);}
	.st43{clip-path:url(#SVGID_88_);fill:#0A4D83;}
	.st44{clip-path:url(#SVGID_90_);}
	.st45{clip-path:url(#SVGID_92_);fill:#0A4D83;}
	.st46{clip-path:url(#SVGID_94_);}
	.st47{clip-path:url(#SVGID_96_);fill:#0A4D83;}
	.st48{clip-path:url(#SVGID_98_);}
	.st49{clip-path:url(#SVGID_100_);fill:#0A4D83;}
	.st50{clip-path:url(#SVGID_102_);}
	.st51{clip-path:url(#SVGID_104_);fill:#0A4D83;}
	.st52{clip-path:url(#SVGID_106_);}
	.st53{clip-path:url(#SVGID_108_);fill:#0A4D83;}
	.st54{clip-path:url(#SVGID_110_);}
	.st55{clip-path:url(#SVGID_112_);fill:#0A4D83;}
</style>
<g>
	<defs>
		<path id="SVGID_1_" d="M27.2,28.8c-0.2-0.1-0.4-0.1-0.6,0c-0.2,0.1-0.3,0.2-0.4,0.4c-0.5,1.4-1.1,2.7-1.7,4
			c-0.6,1.2-1.2,2.4-1.9,3.6c-0.1,0.2-0.2,0.5,0,0.7c0.1,0.2,0.4,0.4,0.6,0.4c0.3,0,0.5-0.1,0.6-0.4c0.7-1.2,1.4-2.5,2-3.7
			c0.6-1.4,1.2-2.7,1.7-4.2c0.1-0.2,0.1-0.4,0-0.6C27.5,29,27.4,28.8,27.2,28.8z"/>
	</defs>
	<clipPath id="SVGID_2_">
		<use xlink:href="#SVGID_1_"  style="overflow:visible;"/>
	</clipPath>
	<g class="st0">
		<defs>
			<rect id="SVGID_3_" x="-203" y="-5483" width="1440" height="5670"/>
		</defs>
		<clipPath id="SVGID_4_">
			<use xlink:href="#SVGID_3_"  style="overflow:visible;"/>
		</clipPath>
		<rect x="17.6" y="23.7" class="st1" width="15.1" height="19.2"/>
	</g>
</g>
<g>
	<defs>
		<path id="SVGID_5_" d="M24.2,30.8c-0.2-0.1-0.4-0.1-0.6,0c-0.2,0.1-0.3,0.2-0.4,0.4c-0.5,1.2-1.1,2.3-1.7,3.4
			c-0.6,1.1-1.2,2.1-1.9,3.2c-0.2,0.3-0.1,0.8,0.2,1c0.3,0.2,0.8,0.2,1-0.2c0.7-1.1,1.4-2.2,2-3.3c0.6-1.2,1.2-2.3,1.7-3.5
			c0.1-0.2,0.1-0.4,0-0.6C24.5,31.1,24.4,30.9,24.2,30.8z"/>
	</defs>
	<clipPath id="SVGID_6_">
		<use xlink:href="#SVGID_5_"  style="overflow:visible;"/>
	</clipPath>
	<g class="st2">
		<defs>
			<rect id="SVGID_7_" x="-203" y="-5483" width="1440" height="5670"/>
		</defs>
		<clipPath id="SVGID_8_">
			<use xlink:href="#SVGID_7_"  style="overflow:visible;"/>
		</clipPath>
		<rect x="14.5" y="25.8" class="st3" width="15.1" height="18.2"/>
	</g>
</g>
<g>
	<defs>
		<path id="SVGID_9_" d="M22.3,29.9c0.5-1.1,0.9-2.2,1.3-3.3c0.1-0.2,0-0.5-0.2-0.7c-0.2-0.2-0.5-0.3-0.7-0.2
			c-0.3,0.1-0.5,0.2-0.6,0.5c-0.4,1.1-0.8,2.2-1.2,3.2c-0.5,1-1,2-1.5,3c-0.5,1-1.1,1.9-1.8,2.8c-0.6,0.9-1.3,1.8-2.1,2.7
			c-0.2,0.3-0.2,0.7,0.2,1s0.8,0.2,1.1-0.1c0.8-0.9,1.5-1.8,2.1-2.8c0.7-0.9,1.3-1.9,1.8-2.9C21.3,32,21.8,30.9,22.3,29.9z"/>
	</defs>
	<clipPath id="SVGID_10_">
		<use xlink:href="#SVGID_9_"  style="overflow:visible;"/>
	</clipPath>
	<g class="st4">
		<defs>
			<rect id="SVGID_11_" x="-203" y="-5483" width="1440" height="5670"/>
		</defs>
		<clipPath id="SVGID_12_">
			<use xlink:href="#SVGID_11_"  style="overflow:visible;"/>
		</clipPath>
		<rect x="10.4" y="20.6" class="st5" width="18.2" height="23.3"/>
	</g>
</g>
<g>
	<defs>
		<path id="SVGID_13_" d="M17.1,31.9c-0.2-0.1-0.4-0.1-0.6-0.1c-0.2,0-0.4,0.2-0.4,0.3c-0.5,0.9-1.1,1.7-1.7,2.6
			c-0.2,0.2-0.3,0.4-0.3,0.4c0,0,0,0.1-0.1,0.1c0,0,0,0,0,0c-0.1,0.1-0.2,0.2-0.4,0.5c-0.2,0.2-0.2,0.5-0.1,0.7
			c0.1,0.2,0.3,0.4,0.6,0.5c0.3,0,0.5,0,0.7-0.2c0.2-0.3,0.3-0.4,0.4-0.4c0.1-0.1,0.2-0.2,0.2-0.3c0.1-0.1,0.1-0.2,0.3-0.4
			c0.6-0.9,1.2-1.8,1.8-2.7c0.1-0.2,0.1-0.4,0.1-0.5C17.4,32.1,17.2,32,17.1,31.9z"/>
	</defs>
	<clipPath id="SVGID_14_">
		<use xlink:href="#SVGID_13_"  style="overflow:visible;"/>
	</clipPath>
	<g class="st6">
		<defs>
			<rect id="SVGID_15_" x="-203" y="-5483" width="1440" height="5670"/>
		</defs>
		<clipPath id="SVGID_16_">
			<use xlink:href="#SVGID_15_"  style="overflow:visible;"/>
		</clipPath>
		<rect x="8.3" y="26.8" class="st7" width="14.1" height="15.1"/>
	</g>
</g>
<g>
	<defs>
		<path id="SVGID_17_" d="M10.6,27.4c0.9-2,1.6-4,2.1-6.2c0.4-2,0.7-4.1,0.7-6.1c0-0.4-0.3-0.7-0.7-0.7c-0.4,0-0.7,0.3-0.7,0.7
			c0,2-0.2,3.9-0.6,5.8c-0.2,1.1-0.5,2.1-0.9,3.1c-0.3,0.9-0.7,1.8-1.1,2.7c-0.8,1.7-1.8,3.4-3,4.9c-0.2,0.3-0.2,0.8,0.1,1
			c0.3,0.3,0.7,0.2,1-0.1c0.6-0.8,1.2-1.6,1.7-2.5C9.6,29.2,10.1,28.3,10.6,27.4z"/>
	</defs>
	<clipPath id="SVGID_18_">
		<use xlink:href="#SVGID_17_"  style="overflow:visible;"/>
	</clipPath>
	<g class="st8">
		<defs>
			<rect id="SVGID_19_" x="-203" y="-5483" width="1440" height="5670"/>
		</defs>
		<clipPath id="SVGID_20_">
			<use xlink:href="#SVGID_19_"  style="overflow:visible;"/>
		</clipPath>
		<rect x="1.2" y="9.4" class="st9" width="17.2" height="28.5"/>
	</g>
</g>
<g>
	<defs>
		<path id="SVGID_21_" d="M8.1,24.6c0.1-0.3,0-0.8-0.3-0.9c-0.3-0.2-0.7,0-0.9,0.3c-0.4,0.8-0.8,1.7-1.3,2.5
			c-0.4,0.8-0.9,1.5-1.5,2.2c-0.2,0.3-0.2,0.7,0.1,1c0.3,0.2,0.7,0.2,0.9-0.1c0.6-0.7,1.1-1.5,1.6-2.3C7.3,26.3,7.8,25.5,8.1,24.6z"
			/>
	</defs>
	<clipPath id="SVGID_22_">
		<use xlink:href="#SVGID_21_"  style="overflow:visible;"/>
	</clipPath>
	<g class="st10">
		<defs>
			<rect id="SVGID_23_" x="-203" y="-5483" width="1440" height="5670"/>
		</defs>
		<clipPath id="SVGID_24_">
			<use xlink:href="#SVGID_23_"  style="overflow:visible;"/>
		</clipPath>
		<rect x="-0.9" y="18.6" class="st11" width="14.1" height="16.2"/>
	</g>
</g>
<g>
	<defs>
		<path id="SVGID_25_" d="M6.1,21.8c0.7-2.2,1.1-4.5,1.1-6.8c0-0.4-0.3-0.7-0.6-0.7c-0.3,0-0.6,0.3-0.6,0.7c0,2.1-0.3,4.3-1,6.3
			c-0.3,1-0.7,2-1.2,2.9c-0.4,0.8-0.9,1.6-1.5,2.3C2,26.8,2,27,2.1,27.2c0.1,0.2,0.3,0.4,0.5,0.4c0.2,0,0.5-0.1,0.6-0.3
			c0.6-0.8,1.1-1.6,1.6-2.5C5.3,23.9,5.7,22.9,6.1,21.8z"/>
	</defs>
	<clipPath id="SVGID_26_">
		<use xlink:href="#SVGID_25_"  style="overflow:visible;"/>
	</clipPath>
	<g class="st12">
		<defs>
			<rect id="SVGID_27_" x="-203" y="-5483" width="1440" height="5670"/>
		</defs>
		<clipPath id="SVGID_28_">
			<use xlink:href="#SVGID_27_"  style="overflow:visible;"/>
		</clipPath>
		<rect x="-2.9" y="9.4" class="st13" width="15.1" height="23.3"/>
	</g>
</g>
<g>
	<defs>
		<path id="SVGID_29_" d="M3,22.1c1-2.3,1.5-4.8,1.5-7.3c0-3.4,1.2-6.7,3.4-9.2C8.5,5,9.2,4.3,10,3.7c0.7-0.5,1.5-1,2.3-1.4
			c0.8-0.4,1.7-0.7,2.6-0.9c0.2-0.1,0.4-0.2,0.5-0.5c0.1-0.2,0-0.5-0.2-0.7C15,0,14.8,0,14.5,0c-1.9,0.5-3.8,1.3-5.4,2.6
			C8.3,3.2,7.5,3.9,6.8,4.7c-2.4,2.8-3.8,6.4-3.8,10.2c0,2.3-0.5,4.6-1.3,6.7c-0.4,1-1,2-1.6,2.9C0,24.6,0,24.8,0,25
			s0.1,0.4,0.3,0.5c0.1,0.1,0.3,0.1,0.4,0.1c0.2,0,0.4-0.1,0.6-0.3C2,24.3,2.5,23.3,3,22.1L3,22.1z"/>
	</defs>
	<clipPath id="SVGID_30_">
		<use xlink:href="#SVGID_29_"  style="overflow:visible;"/>
	</clipPath>
	<g class="st14">
		<defs>
			<rect id="SVGID_31_" x="-203" y="-5483" width="1440" height="5670"/>
		</defs>
		<clipPath id="SVGID_32_">
			<use xlink:href="#SVGID_31_"  style="overflow:visible;"/>
		</clipPath>
		<rect x="-5" y="-5" class="st15" width="25.4" height="35.6"/>
	</g>
</g>
<g>
	<defs>
		<path id="SVGID_33_" d="M26.7,6.3c-2-1.9-4.5-3-7.2-3.2c-0.4,0-0.7,0-1,0c-0.7,0-1.5,0.1-2.2,0.2c-2,0.4-4,1.3-5.6,2.7
			C9.8,6.7,9,7.6,8.3,8.6C8.2,8.8,8.2,9.1,8.3,9.4c0.1,0.2,0.3,0.4,0.6,0.4c0.3,0,0.5-0.1,0.6-0.3c1.1-1.7,2.6-3,4.4-3.9
			c0.8-0.4,1.7-0.7,2.6-0.8c0.6-0.1,1.3-0.2,2-0.2c0.3,0,0.5,0,0.9,0c5.6,0.5,9.9,5.3,9.9,11.1c0,3.4-0.4,6.8-1.1,10.1
			c-0.1,0.4,0.1,0.8,0.5,0.9s0.8-0.2,0.9-0.6c0.8-3.4,1.2-6.9,1.2-10.4C30.8,12.1,29.3,8.7,26.7,6.3z"/>
	</defs>
	<clipPath id="SVGID_34_">
		<use xlink:href="#SVGID_33_"  style="overflow:visible;"/>
	</clipPath>
	<g class="st16">
		<defs>
			<rect id="SVGID_35_" x="-203" y="-5483" width="1440" height="5670"/>
		</defs>
		<clipPath id="SVGID_36_">
			<use xlink:href="#SVGID_35_"  style="overflow:visible;"/>
		</clipPath>
		<rect x="3.2" y="-1.9" class="st17" width="32.6" height="33.6"/>
	</g>
</g>
<g>
	<defs>
		<path id="SVGID_37_" d="M20.9,5.3c-1.1-0.2-2.3-0.3-3.4-0.1c-4.8,0.6-8.4,4.6-8.4,9.2c0,2.1-0.3,4.2-0.9,6.2
			c-0.1,0.2,0,0.4,0.1,0.5s0.3,0.3,0.4,0.3c0.1,0,0.1,0,0.2,0c0.3,0,0.6-0.2,0.7-0.5c0.7-2.1,1-4.4,1-6.6c0-3.9,3-7.3,7.1-7.8
			c1-0.1,1.9-0.1,2.9,0.1c0.1,0,0.1,0,0.2,0c0.4,0,0.7-0.3,0.7-0.6C21.6,5.7,21.3,5.4,20.9,5.3z"/>
	</defs>
	<clipPath id="SVGID_38_">
		<use xlink:href="#SVGID_37_"  style="overflow:visible;"/>
	</clipPath>
	<g class="st18">
		<defs>
			<rect id="SVGID_39_" x="-203" y="-5483" width="1440" height="5670"/>
		</defs>
		<clipPath id="SVGID_40_">
			<use xlink:href="#SVGID_39_"  style="overflow:visible;"/>
		</clipPath>
		<rect x="3.2" y="0.1" class="st19" width="23.3" height="26.4"/>
	</g>
</g>
<g>
	<defs>
		<path id="SVGID_41_" d="M24.7,23.5c-0.3,1.4-0.6,2.9-1,4.3c-0.1,0.4,0.1,0.8,0.4,0.9c0.3,0.1,0.7-0.1,0.8-0.5
			c0.4-1.5,0.7-2.9,1-4.4c0.5-2.9,0.8-5.9,0.8-8.8c0-3-1.2-5.9-3.2-7.7c-0.3-0.2-0.6-0.1-0.8,0.2c-0.2,0.3-0.1,0.7,0.1,1
			c1.7,1.5,2.7,3.9,2.7,6.5C25.5,17.8,25.2,20.7,24.7,23.5L24.7,23.5z"/>
	</defs>
	<clipPath id="SVGID_42_">
		<use xlink:href="#SVGID_41_"  style="overflow:visible;"/>
	</clipPath>
	<g class="st20">
		<defs>
			<rect id="SVGID_43_" x="-203" y="-5483" width="1440" height="5670"/>
		</defs>
		<clipPath id="SVGID_44_">
			<use xlink:href="#SVGID_43_"  style="overflow:visible;"/>
		</clipPath>
		<rect x="17.6" y="2.2" class="st21" width="14.1" height="31.5"/>
	</g>
</g>
<g>
	<defs>
		<path id="SVGID_45_" d="M18.7,8.2c-0.2,0-0.4,0-0.6,0c-1.2,0.1-2.3,0.5-3.3,1.1c-0.2,0.1-0.4,0.4-0.3,0.7c0,0.3,0.2,0.5,0.4,0.6
			c0.3,0.1,0.5,0.1,0.8-0.1c0.8-0.5,1.7-0.8,2.6-0.9c0.2,0,0.3,0,0.5,0c0.8,0,1.6,0.2,2.3,0.5c1.9,0.8,3.1,2.6,3.1,4.6
			c0,2.3-0.2,4.6-0.7,6.9c0,0.2,0,0.4,0.1,0.5c0.1,0.2,0.3,0.3,0.5,0.3c0,0,0.1,0,0.1,0c0.4,0,0.7-0.3,0.8-0.6
			c0.5-2.4,0.7-4.8,0.7-7.2c0-2.5-1.5-4.8-4-5.9C20.7,8.4,19.7,8.2,18.7,8.2z"/>
	</defs>
	<clipPath id="SVGID_46_">
		<use xlink:href="#SVGID_45_"  style="overflow:visible;"/>
	</clipPath>
	<g class="st22">
		<defs>
			<rect id="SVGID_47_" x="-203" y="-5483" width="1440" height="5670"/>
		</defs>
		<clipPath id="SVGID_48_">
			<use xlink:href="#SVGID_47_"  style="overflow:visible;"/>
		</clipPath>
		<rect x="9.4" y="3.2" class="st23" width="21.3" height="24.4"/>
	</g>
</g>
<g>
	<defs>
		<path id="SVGID_49_" d="M13.6,26.5c0.7,0.3,1.5,0.5,2.2,0.6c0.7,0.1,1.4,0.2,2.1,0.2c-0.2,0.6-0.5,1.3-0.8,1.9
			c-0.2,0.4,0,0.8,0.3,1c0.4,0.2,0.8,0,0.9-0.4c0.4-1,0.8-2,1.2-3c0,0,0,0,0,0c0.4-1,0.7-2.1,0.9-3.1c0.3-1.1,0.5-2.2,0.7-3.4
			c0.3-1.8,0.4-3.6,0.4-5.4c0-2-1.6-3.6-3.6-3.6c0,0-0.1,0-0.1,0h0c-1.9,0.1-3.4,1.7-3.4,3.6c0,0.4,0.3,0.7,0.7,0.7
			c0.4,0,0.7-0.3,0.7-0.7c0-1.2,0.9-2.1,2-2.2l0.1,0c1.2,0,2.1,1,2.1,2.2c0,1.7-0.1,3.4-0.4,5.1c-0.2,1.1-0.4,2.2-0.6,3.2
			c-0.2,0.9-0.5,1.7-0.7,2.6c-0.1,0-0.3,0-0.4,0c-0.6,0-1.3-0.1-1.9-0.2c-0.7-0.1-1.3-0.3-1.9-0.6c0.3-0.7,0.5-1.5,0.7-2.2
			c0.3-1,0.5-2,0.7-3.1c0-0.3-0.1-0.5-0.3-0.7C15,19,14.7,18.9,14.5,19c-0.2,0.1-0.4,0.3-0.5,0.6c-0.2,1-0.4,2-0.6,2.9
			c-0.2,0.9-0.5,1.8-0.9,2.7c-0.3,0.9-0.7,1.7-1.1,2.6c-0.4,0.8-0.9,1.7-1.4,2.5c-0.5,0.8-1.1,1.6-1.6,2.3c-0.2,0.2-0.2,0.5-0.1,0.7
			c0.1,0.2,0.3,0.4,0.6,0.5c0.3,0,0.5-0.1,0.7-0.3c0.6-0.8,1.2-1.6,1.7-2.5c0.5-0.8,1-1.7,1.5-2.6C13,27.8,13.3,27.2,13.6,26.5z"/>
	</defs>
	<clipPath id="SVGID_50_">
		<use xlink:href="#SVGID_49_"  style="overflow:visible;"/>
	</clipPath>
	<g class="st24">
		<defs>
			<rect id="SVGID_51_" x="-203" y="-5483" width="1440" height="5670"/>
		</defs>
		<clipPath id="SVGID_52_">
			<use xlink:href="#SVGID_51_"  style="overflow:visible;"/>
		</clipPath>
		<rect x="3.2" y="6.3" class="st25" width="23.3" height="32.6"/>
	</g>
</g>
<g>
	<defs>
		<polygon id="SVGID_53_" points="46.7,17.4 46.7,12 43.9,16.5 43.2,16.5 40.4,12.1 40.4,17.4 39,17.4 39,9.2 40.2,9.2 43.6,14.7 
			46.9,9.2 48.2,9.2 48.2,17.4 		"/>
	</defs>
	<clipPath id="SVGID_54_">
		<use xlink:href="#SVGID_53_"  style="overflow:visible;"/>
	</clipPath>
	<g class="st26">
		<defs>
			<rect id="SVGID_55_" x="-203" y="-5483" width="1440" height="5670"/>
		</defs>
		<clipPath id="SVGID_56_">
			<use xlink:href="#SVGID_55_"  style="overflow:visible;"/>
		</clipPath>
		<rect x="34" y="4.2" class="st27" width="19.2" height="18.2"/>
	</g>
</g>
<g>
	<defs>
		<polygon id="SVGID_57_" points="56.4,16.2 56.4,17.4 50.2,17.4 50.2,9.2 56.2,9.2 56.2,10.5 51.8,10.5 51.8,12.6 55.7,12.6 
			55.7,13.9 51.8,13.9 51.8,16.2 		"/>
	</defs>
	<clipPath id="SVGID_58_">
		<use xlink:href="#SVGID_57_"  style="overflow:visible;"/>
	</clipPath>
	<g class="st28">
		<defs>
			<rect id="SVGID_59_" x="-203" y="-5483" width="1440" height="5670"/>
		</defs>
		<clipPath id="SVGID_60_">
			<use xlink:href="#SVGID_59_"  style="overflow:visible;"/>
		</clipPath>
		<rect x="45.2" y="4.2" class="st29" width="16.2" height="18.2"/>
	</g>
</g>
<g>
	<defs>
		<polygon id="SVGID_61_" points="65.6,9.2 65.6,17.4 64.1,17.4 64.1,13.9 59.9,13.9 59.9,17.4 58.4,17.4 58.4,9.2 59.9,9.2 
			59.9,12.6 64.1,12.6 64.1,9.2 		"/>
	</defs>
	<clipPath id="SVGID_62_">
		<use xlink:href="#SVGID_61_"  style="overflow:visible;"/>
	</clipPath>
	<g class="st30">
		<defs>
			<rect id="SVGID_63_" x="-203" y="-5483" width="1440" height="5670"/>
		</defs>
		<clipPath id="SVGID_64_">
			<use xlink:href="#SVGID_63_"  style="overflow:visible;"/>
		</clipPath>
		<rect x="53.4" y="4.2" class="st31" width="17.2" height="18.2"/>
	</g>
</g>
<g>
	<defs>
		<rect id="SVGID_65_" x="68.7" y="9.2" width="2.1" height="8.2"/>
	</defs>
	<clipPath id="SVGID_66_">
		<use xlink:href="#SVGID_65_"  style="overflow:visible;"/>
	</clipPath>
	<g class="st32">
		<defs>
			<rect id="SVGID_67_" x="-203" y="-5483" width="1440" height="5670"/>
		</defs>
		<clipPath id="SVGID_68_">
			<use xlink:href="#SVGID_67_"  style="overflow:visible;"/>
		</clipPath>
		<rect x="63.7" y="4.2" class="st33" width="12.1" height="18.2"/>
	</g>
</g>
<g>
	<defs>
		<polygon id="SVGID_69_" points="81,16.4 81,19.5 79.6,19.5 79.6,17.7 78.3,17.7 78.3,14.1 74.3,14.1 74.3,17.7 72.8,17.7 
			72.8,9.2 74.3,9.2 74.3,12.7 78.3,12.7 78.3,9.2 79.8,9.2 79.8,16.4 		"/>
	</defs>
	<clipPath id="SVGID_70_">
		<use xlink:href="#SVGID_69_"  style="overflow:visible;"/>
	</clipPath>
	<g class="st34">
		<defs>
			<rect id="SVGID_71_" x="-203" y="-5483" width="1440" height="5670"/>
		</defs>
		<clipPath id="SVGID_72_">
			<use xlink:href="#SVGID_71_"  style="overflow:visible;"/>
		</clipPath>
		<rect x="67.8" y="4.2" class="st35" width="18.2" height="20.3"/>
	</g>
</g>
<g>
	<defs>
		<path id="SVGID_73_" d="M45.2,24.6L43.6,21L42,24.6H45.2z M45.7,25.8h-4.3l-0.8,1.9H39l3.8-8.2h1.6l3.8,8.2h-1.7L45.7,25.8z"/>
	</defs>
	<clipPath id="SVGID_74_">
		<use xlink:href="#SVGID_73_"  style="overflow:visible;"/>
	</clipPath>
	<g class="st36">
		<defs>
			<rect id="SVGID_75_" x="-203" y="-5483" width="1440" height="5670"/>
		</defs>
		<clipPath id="SVGID_76_">
			<use xlink:href="#SVGID_75_"  style="overflow:visible;"/>
		</clipPath>
		<rect x="34" y="14.5" class="st37" width="19.2" height="18.2"/>
	</g>
</g>
<g>
	<defs>
		<polygon id="SVGID_77_" points="55.4,20.8 52.5,20.8 52.5,27.7 51,27.7 51,20.8 48.2,20.8 48.2,19.5 55.4,19.5 		"/>
	</defs>
	<clipPath id="SVGID_78_">
		<use xlink:href="#SVGID_77_"  style="overflow:visible;"/>
	</clipPath>
	<g class="st38">
		<defs>
			<rect id="SVGID_79_" x="-203" y="-5483" width="1440" height="5670"/>
		</defs>
		<clipPath id="SVGID_80_">
			<use xlink:href="#SVGID_79_"  style="overflow:visible;"/>
		</clipPath>
		<rect x="43.2" y="14.5" class="st39" width="17.2" height="18.2"/>
	</g>
</g>
<g>
	<defs>
		<path id="SVGID_81_" d="M60.5,24.6L58.9,21l-1.6,3.6H60.5z M61.1,25.8h-4.3L56,27.7h-1.6l3.8-8.2h1.6l3.8,8.2h-1.7L61.1,25.8z"/>
	</defs>
	<clipPath id="SVGID_82_">
		<use xlink:href="#SVGID_81_"  style="overflow:visible;"/>
	</clipPath>
	<g class="st40">
		<defs>
			<rect id="SVGID_83_" x="-203" y="-5483" width="1440" height="5670"/>
		</defs>
		<clipPath id="SVGID_84_">
			<use xlink:href="#SVGID_83_"  style="overflow:visible;"/>
		</clipPath>
		<rect x="49.3" y="14.5" class="st41" width="19.2" height="18.2"/>
	</g>
</g>
<g>
	<defs>
		<polygon id="SVGID_85_" points="72.3,27.7 72.3,22.2 69.5,26.7 68.8,26.7 66.1,22.3 66.1,27.7 64.6,27.7 64.6,19.5 65.9,19.5 
			69.2,24.9 72.5,19.5 73.8,19.5 73.8,27.7 		"/>
	</defs>
	<clipPath id="SVGID_86_">
		<use xlink:href="#SVGID_85_"  style="overflow:visible;"/>
	</clipPath>
	<g class="st42">
		<defs>
			<rect id="SVGID_87_" x="-203" y="-5483" width="1440" height="5670"/>
		</defs>
		<clipPath id="SVGID_88_">
			<use xlink:href="#SVGID_87_"  style="overflow:visible;"/>
		</clipPath>
		<rect x="59.6" y="14.5" class="st43" width="19.2" height="18.2"/>
	</g>
</g>
<g>
	<defs>
		<polygon id="SVGID_89_" points="81,26.4 81,27.7 74.8,27.7 74.8,19.5 80.8,19.5 80.8,20.8 76.4,20.8 76.4,22.9 80.3,22.9 
			80.3,24.1 76.4,24.1 76.4,26.4 		"/>
	</defs>
	<clipPath id="SVGID_90_">
		<use xlink:href="#SVGID_89_"  style="overflow:visible;"/>
	</clipPath>
	<g class="st44">
		<defs>
			<rect id="SVGID_91_" x="-203" y="-5483" width="1440" height="5670"/>
		</defs>
		<clipPath id="SVGID_92_">
			<use xlink:href="#SVGID_91_"  style="overflow:visible;"/>
		</clipPath>
		<rect x="69.8" y="14.5" class="st45" width="16.2" height="18.2"/>
	</g>
</g>
<g>
	<defs>
		<polygon id="SVGID_93_" points="86.1,24.2 84.5,24.2 84.5,27.7 83,27.7 83,19.5 84.5,19.5 84.5,22.9 86.1,22.9 88.5,19.5 
			90.1,19.5 87.3,23.5 90.2,27.7 88.5,27.7 		"/>
	</defs>
	<clipPath id="SVGID_94_">
		<use xlink:href="#SVGID_93_"  style="overflow:visible;"/>
	</clipPath>
	<g class="st46">
		<defs>
			<rect id="SVGID_95_" x="-203" y="-5483" width="1440" height="5670"/>
		</defs>
		<clipPath id="SVGID_96_">
			<use xlink:href="#SVGID_95_"  style="overflow:visible;"/>
		</clipPath>
		<rect x="78" y="14.5" class="st47" width="17.2" height="18.2"/>
	</g>
</g>
<g>
	<defs>
		<polygon id="SVGID_97_" points="97.4,26.4 97.4,27.7 91.2,27.7 91.2,19.5 97.2,19.5 97.2,20.8 92.8,20.8 92.8,22.9 96.7,22.9 
			96.7,24.1 92.8,24.1 92.8,26.4 		"/>
	</defs>
	<clipPath id="SVGID_98_">
		<use xlink:href="#SVGID_97_"  style="overflow:visible;"/>
	</clipPath>
	<g class="st48">
		<defs>
			<rect id="SVGID_99_" x="-203" y="-5483" width="1440" height="5670"/>
		</defs>
		<clipPath id="SVGID_100_">
			<use xlink:href="#SVGID_99_"  style="overflow:visible;"/>
		</clipPath>
		<rect x="86.2" y="14.5" class="st49" width="16.2" height="18.2"/>
	</g>
</g>
<g>
	<defs>
		<polygon id="SVGID_101_" points="106.6,19.5 106.6,27.7 105.1,27.7 105.1,24.2 100.9,24.2 100.9,27.7 99.4,27.7 99.4,19.5 
			100.9,19.5 100.9,22.9 105.1,22.9 105.1,19.5 		"/>
	</defs>
	<clipPath id="SVGID_102_">
		<use xlink:href="#SVGID_101_"  style="overflow:visible;"/>
	</clipPath>
	<g class="st50">
		<defs>
			<rect id="SVGID_103_" x="-203" y="-5483" width="1440" height="5670"/>
		</defs>
		<clipPath id="SVGID_104_">
			<use xlink:href="#SVGID_103_"  style="overflow:visible;"/>
		</clipPath>
		<rect x="94.4" y="14.5" class="st51" width="17.2" height="18.2"/>
	</g>
</g>
<g>
	<defs>
		<rect id="SVGID_105_" x="108.7" y="19.5" width="2.1" height="8.2"/>
	</defs>
	<clipPath id="SVGID_106_">
		<use xlink:href="#SVGID_105_"  style="overflow:visible;"/>
	</clipPath>
	<g class="st52">
		<defs>
			<rect id="SVGID_107_" x="-203" y="-5483" width="1440" height="5670"/>
		</defs>
		<clipPath id="SVGID_108_">
			<use xlink:href="#SVGID_107_"  style="overflow:visible;"/>
		</clipPath>
		<rect x="103.7" y="14.5" class="st53" width="12.1" height="18.2"/>
	</g>
</g>
<g>
	<defs>
		<polygon id="SVGID_109_" points="120.5,27.7 120.5,22.2 117.7,26.7 117,26.7 114.3,22.3 114.3,27.7 112.8,27.7 112.8,19.5 
			114.1,19.5 117.4,24.9 120.7,19.5 122,19.5 122,27.7 		"/>
	</defs>
	<clipPath id="SVGID_110_">
		<use xlink:href="#SVGID_109_"  style="overflow:visible;"/>
	</clipPath>
	<g class="st54">
		<defs>
			<rect id="SVGID_111_" x="-203" y="-5483" width="1440" height="5670"/>
		</defs>
		<clipPath id="SVGID_112_">
			<use xlink:href="#SVGID_111_"  style="overflow:visible;"/>
		</clipPath>
		<rect x="107.8" y="14.5" class="st55" width="19.2" height="18.2"/>
	</g>
</g>
</svg>
