<?xml version="1.0" encoding="UTF-8"?>
<svg width="122px" height="39px" viewBox="0 0 122 39" version="1.1" xmlns="http://www.w3.org/2000/svg" xmlns:xlink="http://www.w3.org/1999/xlink">
    <!-- Generator: Sketch 50.2 (55047) - http://www.bohemiancoding.com/sketch -->
    <title>MA_Logo</title>
    <desc>Created with Sketch.</desc>
    <defs></defs>
    <g id="Page-1" stroke="none" stroke-width="1" fill="none" fill-rule="evenodd">
        <g id="MA_-Month" transform="translate(-203.000000, -19.000000)" fill="#FFFFFF" fill-rule="nonzero">
            <g id="MA_Logo" transform="translate(203.000000, 19.000000)">
                <path d="M27.2062241,28.7500793 C27.026602,28.6836707 26.8283275,28.6923832 26.6550395,28.7742992 C26.4817514,28.8562152 26.3476521,29.004621 26.282256,29.1868536 C25.7899425,30.5530138 25.2297197,31.8929985 24.6037415,33.2016562 C24.015311,34.432337 23.3640705,35.643736 22.6690283,36.8065113 C22.5275902,37.0297559 22.5165254,37.3132197 22.6401196,37.5471094 C22.7637138,37.7809992 23.0025543,37.9285782 23.2641316,37.9326852 C23.5257089,37.9367921 23.7689375,37.7967819 23.8996084,37.5668843 C24.619444,36.3680603 25.2929986,35.1155828 25.9012638,33.8429851 C26.5481657,32.4887667 27.1274127,31.1023546 27.6368031,29.6890183 C27.7025536,29.5065929 27.6941189,29.3051367 27.6133568,29.1290234 C27.5325947,28.9529102 27.3861301,28.8165863 27.2062241,28.7500793 Z" id="Shape"></path>
                <path d="M24.1775751,30.8218232 C24.0029728,30.7407783 23.8043343,30.7346779 23.6253746,30.8048646 C23.4464149,30.8750514 23.3017998,31.0157734 23.2233552,31.1960615 C22.7226587,32.3469723 22.1582372,33.4953199 21.5466427,34.608636 C20.9532553,35.6877751 20.3052464,36.7558067 19.6092369,37.7845347 C19.3807022,38.1224051 19.4607362,38.5875728 19.787998,38.8235158 C20.1152597,39.0594588 20.5658218,38.9768303 20.7943565,38.6389599 C21.5118836,37.5734916 22.1872031,36.4661565 22.8021081,35.3477138 C23.4360478,34.1942397 24.0211592,33.0040253 24.5400628,31.8103933 C24.6198384,31.6297884 24.6264228,31.4237645 24.5583521,31.2381233 C24.4902814,31.0524822 24.3531972,30.9026092 24.1775751,30.8218232 Z" id="Shape"></path>
                <path d="M22.2717117,29.8756525 C22.7526192,28.7866788 23.1817501,27.6629936 23.5476962,26.5360795 C23.6260774,26.2951205 23.558756,26.0340002 23.3710911,25.8510801 C23.1834263,25.66816 22.9039288,25.59123 22.6378827,25.6492688 C22.3718366,25.7073077 22.1596606,25.891498 22.0812794,26.1324569 C21.7302521,27.2165871 21.3160398,28.2974883 20.8526837,29.3452924 C20.4016135,30.3664575 19.8970117,31.3747066 19.3511642,32.3425935 C18.8053167,33.3104804 18.2041823,34.2654513 17.5740882,35.1736021 C16.9439941,36.0817528 16.2577357,36.9761804 15.5214558,37.8439689 C15.2816663,38.151714 15.3494757,38.5788075 15.6749298,38.810616 C16.0003839,39.0424245 16.4668745,38.9958925 16.730745,38.7052994 C17.4915968,37.8036066 18.2094477,36.8704313 18.8632362,35.9299907 C19.5170246,34.9895502 20.1400982,33.997446 20.7061298,32.9875823 C21.2721614,31.9777187 21.8004575,30.9363725 22.2717117,29.8756525 Z" id="Shape"></path>
                <path d="M17.0572087,31.8760157 C16.8871372,31.7820859 16.6851717,31.7569435 16.4957917,31.8061256 C16.3064117,31.8553078 16.1451495,31.9747808 16.0475203,32.1382327 C15.5261447,33.0095749 14.9454254,33.878474 14.3324911,34.7196856 C14.1629381,34.9468861 14.0781616,35.0747372 14.018818,35.153728 C13.9857552,35.199331 13.9713431,35.2221325 13.9560834,35.2400479 C13.9408236,35.2579634 13.9348892,35.2636637 13.9162384,35.2832079 C13.8551993,35.3483549 13.7466853,35.4648053 13.5042245,35.7367944 C13.3329473,35.9299753 13.2819719,36.1962542 13.3705002,36.4353265 C13.4590285,36.6743988 13.6736109,36.8499436 13.9334163,36.8958349 C14.1932218,36.9417262 14.4587796,36.8509921 14.6300568,36.6578112 C14.8547146,36.4045519 14.9572942,36.2954306 15.0140944,36.2351695 C15.0976241,36.1490764 15.1728204,36.055857 15.2387522,35.9566658 C15.2930092,35.880118 15.3811768,35.7571528 15.5422522,35.5372815 C16.1848583,34.6602389 16.7859239,33.7546946 17.3301892,32.8458928 C17.4279746,32.6825271 17.4541491,32.488525 17.4029481,32.3066121 C17.3517471,32.1246992 17.22737,31.9697955 17.0572087,31.8760157 Z" id="Shape"></path>
                <path d="M10.563259,27.4061261 C11.500782,25.4416135 12.2091228,23.3645528 12.6727961,21.2203514 C13.1082708,19.203173 13.3279539,17.1408785 13.3277309,15.072092 C13.3148532,14.671039 13.0028068,14.3529412 12.622261,14.3529412 C12.2417152,14.3529412 11.9296687,14.671039 11.916791,15.072092 C11.9175399,17.0298573 11.7097852,18.9815191 11.2974329,20.8903865 C11.0690876,21.9456263 10.7782438,22.9847364 10.4266121,24.0016053 C10.1018328,24.9359351 9.72686186,25.8500048 9.30352011,26.7393755 C8.47892458,28.4678543 7.4756017,30.0948817 6.31184238,31.5907964 C6.06445024,31.907941 6.10770988,32.376517 6.40846549,32.6373903 C6.7092211,32.8982635 7.15358265,32.8526465 7.40097479,32.5355019 C8.01510542,31.7477921 8.58710716,30.9245866 9.1143167,30.0697182 C9.64372335,29.2108477 10.1274502,28.3216122 10.563259,27.4061261 Z" id="Shape"></path>
                <path d="M8.14286031,24.5507094 C8.2912939,24.2067057 8.14911672,23.8000054 7.82529868,23.642319 C7.50148065,23.4846325 7.11864504,23.6356725 6.9702114,23.9796762 C6.60457801,24.826368 6.18691531,25.6465934 5.71992811,26.4350404 C5.27259072,27.1920611 4.78092361,27.9184764 4.24783229,28.6099935 C4.02140468,28.902375 4.06096272,29.3343952 4.33618763,29.5749375 C4.61141255,29.8154798 5.01808229,29.7734559 5.24450992,29.4810744 C5.81177539,28.7445664 6.33528183,27.9712169 6.81198513,27.165523 C7.30886553,26.3257166 7.7534419,25.452243 8.14286031,24.5507094 Z" id="Shape"></path>
                <path d="M6.09149982,21.7798259 C6.81115185,19.6112978 7.17820467,17.3249066 7.17646443,15.0215245 C7.16476514,14.6486718 6.88127282,14.3529412 6.53554932,14.3529412 C6.18982581,14.3529412 5.9063335,14.6486718 5.8946342,15.0215245 C5.89653956,17.1660695 5.55482758,19.2948249 4.88459606,21.3137362 C4.5502571,22.3175929 4.13689741,23.2887234 3.64904395,24.2164925 C3.21697212,25.0363435 2.72858312,25.8201095 2.18797786,26.5612093 C2.04626149,26.7551969 2.01121623,27.0160331 2.0960433,27.2454635 C2.18087036,27.4748938 2.3726825,27.6380623 2.59922594,27.6735051 C2.82576937,27.7089478 3.05262677,27.6112801 3.19434314,27.4172925 C3.77512741,26.6212119 4.29962185,25.7791371 4.76339148,24.8981884 C5.28785436,23.9015945 5.73218369,22.8583212 6.09149982,21.7798259 Z" id="Shape"></path>
                <path d="M3.01715718,22.1453932 C3.98910508,19.8554537 4.48898307,17.3821297 4.48507364,14.8823548 C4.48175061,11.4864577 5.69538204,8.20911384 7.89270802,5.68022852 C8.51605004,4.96115215 9.21056092,4.31125779 9.96491811,3.7411406 C10.6885122,3.19461072 11.4633671,2.72422556 12.2778762,2.33703096 C13.0974731,1.94775312 13.9534002,1.64564883 14.8323902,1.43540091 C15.0777235,1.3767522 15.2740866,1.18755646 15.3475114,0.9390819 C15.4209362,0.690607339 15.3602677,0.420603155 15.1883592,0.230777316 C15.0164507,0.0409514765 14.7594191,-0.0398569551 14.5140858,0.0187917763 C12.5722415,0.485514829 10.7422054,1.35321299 9.13441832,2.56952152 C8.30171091,3.19975568 7.53469167,3.91746322 6.8456966,4.71110121 C4.41713259,7.50647489 3.07552012,11.1288193 3.07855599,14.8823548 C3.08219553,17.1819037 2.62248755,19.4571391 1.72858989,21.5637501 C1.29165341,22.5905959 0.755473191,23.5693935 0.128181233,24.4852981 C0.0207038996,24.6429768 -0.0216326719,24.8382412 0.0104880544,25.0281218 C0.0426087806,25.2180023 0.146554708,25.3869394 0.299451619,25.497757 C0.417503869,25.5840927 0.558676572,25.6303982 0.703391208,25.6302516 C0.932876055,25.6305209 1.14810532,25.5154781 1.28021694,25.3219308 C1.96069122,24.3250491 2.54206817,23.2599923 3.01554142,22.1428933 L3.01715718,22.1453932 Z" id="Shape"></path>
                <path d="M26.7234053,6.32557617 C24.7207852,4.46619648 22.1742607,3.33866433 19.481059,3.11886114 C19.1214219,3.09004055 18.7998154,3.07563025 18.498051,3.07563025 C17.7528145,3.07772676 17.0092907,3.1489382 16.2765687,3.28839406 C14.2274406,3.67238555 12.3077843,4.58617835 10.6993007,5.94327945 C9.78629542,6.71506926 8.98659125,7.6177946 8.32486934,8.62359479 C8.18087645,8.84254911 8.16175045,9.12363367 8.27469591,9.36096665 C8.38764136,9.59829963 8.61549918,9.75582449 8.87243752,9.77420313 C9.12937585,9.79258178 9.37635966,9.66902206 9.52035253,9.45006773 C10.6252538,7.76749224 12.1591371,6.42789713 13.9550495,5.57708836 C14.7770855,5.18644947 15.644089,4.90418929 16.5353421,4.73705279 C17.1822406,4.61474764 17.8385936,4.55261558 18.4963975,4.55141425 C18.7593046,4.55141425 19.0437072,4.56412922 19.3653137,4.59040682 C24.9849217,5.05227759 29.3152644,9.86371442 29.3136188,15.6439527 C29.3142375,19.0454269 28.9288604,22.4354246 28.1652605,25.7455712 C28.07394,26.1435006 28.3145371,26.5419886 28.7026492,26.635619 C29.0907613,26.7292494 29.4794182,26.4825664 29.5707387,26.084637 C30.359388,22.6633059 30.7572484,19.1595375 30.7563008,15.6439527 C30.7529764,12.0938875 29.2885199,8.71012603 26.7234053,6.32557617 Z" id="Shape"></path>
                <path d="M20.933109,5.34061758 C19.8228671,5.10751514 18.6783153,5.06393103 17.5522249,5.21187477 C12.7401386,5.84228943 9.15366354,9.77577515 9.15357752,14.4231363 C9.15292291,16.5184042 8.84246746,18.6030467 8.23144032,20.6150918 C8.17605189,20.7972338 8.19857283,20.9929706 8.29404632,21.1592207 C8.3895198,21.3254709 8.55012079,21.4486085 8.74050119,21.5015312 C8.80852103,21.5200344 8.87889511,21.5294174 8.94961037,21.5294118 C9.28198561,21.5292449 9.57430054,21.3190529 9.66692342,21.0136205 C10.3176357,18.8721345 10.648291,16.6532996 10.649051,14.4231363 C10.6494863,10.4914469 13.6848663,7.16435279 17.7561921,6.63296586 C18.710266,6.5063164 19.6802453,6.54240828 20.6211592,6.73956819 C20.6735055,6.75060376 20.7269605,6.75610353 20.7805621,6.75596855 C21.1641794,6.75670407 21.4860719,6.47939323 21.5254252,6.114268 C21.5647785,5.74914277 21.3088091,5.41480981 20.933109,5.34061758 Z" id="Shape"></path>
                <path d="M24.7177124,23.4738904 C24.4620183,24.9169716 24.1410866,26.3416613 23.7563907,27.7414189 C23.6513438,28.1248189 23.8207363,28.5396036 24.1347395,28.6678667 C24.4487426,28.7961297 24.7884499,28.5893004 24.8934969,28.2059004 C25.2909667,26.7549435 25.622216,25.278184 25.8857182,23.7824268 C26.3969617,20.8813325 26.6549837,17.9222559 26.6554622,14.9547631 C26.649801,11.9290503 25.469799,9.08572959 23.4748608,7.29081842 C23.2093794,7.08454703 22.8584319,7.16438387 22.6716012,7.47355142 C22.4847705,7.78271897 22.5258139,8.21571162 22.7655427,8.46459837 C24.4538219,9.98365384 25.4524361,12.3899337 25.4572434,14.9505711 C25.4570421,17.8146487 25.2079937,20.6706191 24.7142791,23.4705367 L24.7177124,23.4738904 Z" id="Shape"></path>
                <path d="M18.6503029,8.20168067 C18.46007,8.20168067 18.2600587,8.2108786 18.021823,8.23094679 C16.8249255,8.33177256 15.6761754,8.72240052 14.6874128,9.36479982 C14.4595438,9.51297311 14.333022,9.76424174 14.3555067,10.0239553 C14.3779914,10.2836688 14.5460668,10.5123705 14.7964205,10.6239107 C15.0467741,10.7354509 15.3413714,10.712884 15.5692403,10.5647107 C16.3375892,10.0662477 17.2299485,9.76321392 18.1596086,9.68505477 C18.3516194,9.66916745 18.5071837,9.66164187 18.6503029,9.66164187 C19.4633775,9.66197453 20.2657785,9.83580112 20.9971019,10.1700362 C22.8850038,11.0115228 24.0854474,12.8038873 24.0772756,14.7689976 C24.0770543,17.0910245 23.8473119,19.4080029 23.3910147,21.6900164 C23.3531376,21.8805566 23.3974785,22.0774415 23.5142398,22.2371669 C23.6310012,22.3968922 23.8105713,22.5063098 24.013272,22.5412423 C24.0609806,22.5502063 24.1095181,22.5546879 24.1581691,22.5546211 C24.5306173,22.5538836 24.8499874,22.3043579 24.9191009,21.9601008 C25.3920689,19.5889126 25.6301396,17.1815614 25.6302521,14.7689976 C25.6172453,12.2495864 24.081832,9.95651741 21.6718066,8.85724172 C20.7304446,8.42622157 19.6972635,8.20205726 18.6503029,8.20168067 Z" id="Shape"></path>
                <path d="M13.5815729,26.4698471 C14.2944992,26.7541879 15.0322271,26.9683444 15.7847726,27.1094185 C16.4665939,27.2371437 17.1577983,27.3051089 17.8508843,27.3125764 C17.6060843,27.9496396 17.3531244,28.5791785 17.0789484,29.1911604 C16.9149066,29.5570836 17.0714529,29.9899711 17.4286044,30.1580418 C17.7857558,30.3261124 18.2082664,30.1657214 18.3723082,29.7997982 C18.8088682,28.8249745 19.2087081,27.8116929 19.560404,26.7900508 C19.560404,26.7858706 19.560404,26.7825264 19.560404,26.7783462 C19.913732,25.7491798 20.222996,24.6974403 20.4792199,23.650717 C20.7517639,22.5396186 20.9728998,21.4067831 21.1385478,20.2848162 C21.3986202,18.5100653 21.5292698,16.7179279 21.5294118,14.9232855 C21.5271634,12.9106243 19.9352512,11.2796145 17.9708363,11.2773109 C17.9267723,11.2773109 17.8835243,11.2773109 17.8402763,11.2823272 L17.8084523,11.2823272 C15.9074519,11.3665612 14.4092305,12.9712689 14.4114448,14.9207774 C14.4244409,15.3140309 14.7393581,15.6259425 15.1234047,15.6259425 C15.5074513,15.6259425 15.8223684,15.3140309 15.8353646,14.9207774 C15.8343499,13.7506747 16.7343249,12.7880247 17.8753643,12.7387105 L17.9732843,12.7328582 C19.1517948,12.7347009 20.1065919,13.7133219 20.10794,14.9207774 C20.1079974,16.6429582 19.9825285,18.362739 19.73258,20.0657734 C19.575092,21.1409221 19.3621161,22.2269393 19.1009961,23.2928915 C18.8921001,24.1464893 18.6456682,25.0042673 18.3665962,25.8495047 C18.2286922,25.855357 18.0973163,25.8587012 17.9716523,25.8587012 C17.3221329,25.8575166 16.6740449,25.7962367 16.0352845,25.6756082 C15.3724826,25.551287 14.7227361,25.3626054 14.0948368,25.1121166 C14.3494288,24.3897772 14.5795408,23.6523891 14.7802767,22.9108208 C15.0523573,21.9003206 15.2724365,20.8758734 15.4396046,19.8417145 C15.4811475,19.5846928 15.3857022,19.3244879 15.1892221,19.1591164 C14.992742,18.9937448 14.7250771,18.9483305 14.4870542,19.0399805 C14.2490313,19.1316306 14.0768117,19.3464212 14.0352688,19.6034428 C13.8761114,20.587175 13.6666552,21.5616679 13.4077649,22.5228978 C13.1587599,23.4445786 12.8646278,24.3528323 12.526485,25.2442111 C12.1903346,26.1270093 11.8112356,26.9920021 11.3906132,27.835938 C10.9703733,28.6778313 10.5019893,29.50802 9.99851741,30.3114553 C9.49586148,31.1090384 8.94424556,31.8940808 8.35835764,32.6465177 C8.19892792,32.8499996 8.15780019,33.1252662 8.25051659,33.3682946 C8.34323298,33.6113231 8.55565373,33.7850501 8.80750528,33.8238245 C9.05935684,33.8625989 9.31223045,33.7605074 9.47056548,33.5561303 C10.0853858,32.7677919 10.6611209,31.9482727 11.1955892,31.100678 C11.7251732,30.2587847 12.2180371,29.3834499 12.659493,28.4980825 C12.990789,27.8417903 13.2984209,27.160417 13.5815729,26.4698471 Z" id="Shape"></path>
                <polygon id="Shape" points="46.6939039 17.4285714 46.6817962 11.9918991 43.9143344 16.4909241 43.2155503 16.4909241 40.4437643 12.062538 40.4437643 17.4285714 38.9579832 17.4285714 38.9579832 9.22689076 40.2439881 9.22689076 43.5813741 14.65179 46.8833021 9.22689076 48.1606587 9.22689076 48.1848739 17.4285714"></polygon>
                <polygon id="Shape" points="56.3865546 16.1511847 56.3865546 17.4285714 50.2352941 17.4285714 50.2352941 9.22689076 56.2225546 9.22689076 56.2225546 10.5009137 51.7583913 10.5009137 51.7583913 12.6368995 55.7187804 12.6368995 55.7187804 13.889899 51.7583913 13.889899 51.7583913 16.1511847"></polygon>
                <polygon id="Shape" points="65.6134454 9.22689076 65.6134454 17.4285714 64.1143788 17.4285714 64.1143788 13.9134453 59.9368696 13.9134453 59.9368696 17.4285714 58.4369748 17.4285714 58.4369748 9.22689076 59.9368696 9.22689076 59.9368696 12.6133532 64.1143788 12.6133532 64.1143788 9.22689076"></polygon>
                <polygon id="Shape" points="68.6890756 9.22689076 70.7394958 9.22689076 70.7394958 17.4285714 68.6890756 17.4285714"></polygon>
                <polygon id="Shape" points="80.9915966 16.3510998 80.9915966 19.4789916 79.6380076 19.4789916 79.6380076 17.6797388 78.3427072 17.6797388 78.3427072 14.0569658 74.2560342 14.0569658 74.2560342 17.6797388 72.789916 17.6797388 72.789916 9.22689076 74.2560342 9.22689076 74.2560342 12.7170598 78.3386594 12.7170598 78.3386594 9.22689076 79.8047776 9.22689076 79.8047776 16.3510998"></polygon>
                <path d="M45.6817787,25.7818314 L41.4261677,25.7818314 L40.5874388,27.6806723 L38.9579832,27.6806723 L42.787684,19.4789916 L44.3447,19.4789916 L48.1848739,27.6806723 L46.526617,27.6806723 L45.6817787,25.7818314 Z M45.1581186,24.5868567 L43.5531005,21.0019326 L41.960301,24.5868567 L45.1581186,24.5868567 Z" id="Shape"></path>
                <polygon id="Shape" points="55.3613445 20.7673106 52.5492261 20.7673106 52.5492261 27.6806723 50.983071 27.6806723 50.983071 20.7673106 48.1848739 20.7673106 48.1848739 19.4789916 55.3613445 19.4789916"></polygon>
                <path d="M61.05993,25.7818314 L56.804319,25.7818314 L55.9655901,27.6806723 L54.3361345,27.6806723 L58.1658352,19.4789916 L59.7228512,19.4789916 L63.5630252,27.6806723 L61.9047683,27.6806723 L61.05993,25.7818314 Z M60.5362699,24.5868567 L58.9312517,21.0019326 L57.3393251,24.5868567 L60.5362699,24.5868567 Z" id="Shape"></path>
                <polygon id="Shape" points="72.3190837 27.6806723 72.306984 22.2439999 69.5413367 26.743025 68.8430108 26.743025 66.0773635 22.3137979 66.0773635 27.6806723 64.5882353 27.6806723 64.5882353 19.4789916 65.8768541 19.4789916 69.2120518 24.9038908 72.5152718 19.4789916 73.7909266 19.4789916 73.8151261 27.6806723"></polygon>
                <polygon id="Shape" points="80.9915966 26.4039401 80.9915966 27.6806723 74.8403361 27.6806723 74.8403361 19.4789916 80.8275967 19.4789916 80.8275967 20.7548833 76.3634333 20.7548833 76.3634333 22.8864125 80.3238224 22.8864125 80.3238224 24.1396105 76.3634333 24.1396105 76.3634333 26.4039401"></polygon>
                <polygon id="Shape" points="86.0771116 24.2210481 84.5477413 24.2210481 84.5477413 27.6773085 83.0420168 27.6773085 83.0420168 19.4789916 84.5477413 19.4789916 84.5477413 22.9117057 86.124403 22.9117057 88.4889732 19.4789916 90.1129262 19.4789916 87.3007767 23.4507478 90.2184874 27.6806723 88.4889732 27.6806723"></polygon>
                <polygon id="Shape" points="97.394958 26.4039401 97.394958 27.6806723 91.2436975 27.6806723 91.2436975 19.4789916 97.2309804 19.4789916 97.2309804 20.7548833 92.7665864 20.7548833 92.7665864 22.8864125 96.727275 22.8864125 96.727275 24.1396105 92.7665864 24.1396105 92.7665864 26.4039401"></polygon>
                <polygon id="Shape" points="106.621849 19.4789916 106.621849 27.6806723 105.126268 27.6806723 105.126268 24.1655461 100.94924 24.1655461 100.94924 27.6806723 99.4453782 27.6806723 99.4453782 19.4789916 100.9451 19.4789916 100.9451 22.8646131 105.126268 22.8646131 105.126268 19.4789916"></polygon>
                <polygon id="Shape" points="108.672269 19.4789916 110.722689 19.4789916 110.722689 27.6806723 108.672269 27.6806723"></polygon>
                <polygon id="Shape" points="120.499074 27.6806723 120.48697 22.2439999 117.720286 26.743025 117.021698 26.743025 114.255014 22.3137979 114.255014 27.6806723 112.773109 27.6806723 112.773109 19.4789916 114.062211 19.4789916 117.398659 24.9038908 120.698794 19.4789916 121.975792 19.4789916 122 27.6806723"></polygon>
            </g>
        </g>
    </g>
</svg>