<?xml version="1.0" encoding="utf-8"?>
<!-- Generator: Adobe Illustrator 22.0.0, SVG Export Plug-In . SVG Version: 6.00 Build 0)  -->
<svg version="1.1" id="Capa_1" xmlns="http://www.w3.org/2000/svg" xmlns:xlink="http://www.w3.org/1999/xlink" x="0px" y="0px"
	 viewBox="0 0 512 512" style="enable-background:new 0 0 512 512;" xml:space="preserve">
<style type="text/css">
	.st0{fill:#FCD18B;}
	.st1{fill:#FFFFFF;}
	.st2{fill:#FDE6C0;}
	.st3{fill:#F4D6AB;}
	.st4{fill:#37AE77;}
</style>
<circle class="st0" cx="256" cy="102.3" r="102.3"/>
<path class="st1" d="M256,87.3c-2.5,0-4.5-2-4.5-4.5s2-4.5,4.5-4.5c2.5,0,4.5,2,4.5,4.5h30c0-13.6-8-25.4-19.5-31V40.6h-30v11.2
	c-11.5,5.6-19.5,17.4-19.5,31c0,19,15.5,34.5,34.5,34.5c2.5,0,4.5,2,4.5,4.5s-2,4.5-4.5,4.5s-4.5-2-4.5-4.5h-30
	c0,13.6,8,25.4,19.5,31V164h30v-11.2c11.5-5.6,19.5-17.4,19.5-31C290.5,102.8,275,87.3,256,87.3z"/>
<path class="st2" d="M141.2,294.1L81,233.9c-13.6-13.6-14.6-35.7-1.5-49.8c13.8-14.8,36.9-15.1,51-0.9l60,60
	c17.1,17.1,26.7,40.3,26.7,64.5v127.8H106.2V381l-79.5-79.5C9.6,284.4,0,261.2,0,237V88.1c0-20,16.6-36.2,36.8-35.4
	C56,53.3,70.9,69.7,70.9,88.9v111.2"/>
<path class="st3" d="M36.8,52.7v191.4l77.6,77.7l26.8-27.7L81,233.9c-8.9-8.9-12.4-21.6-10.1-33.2V88.9C70.9,69.7,56,53.3,36.8,52.7
	"/>
<path class="st4" d="M243.5,512H71.7v-97.2h171.8V512z"/>
<circle class="st1" cx="111.7" cy="463.4" r="15"/>
<path class="st2" d="M370.8,294.1l60.2-60.2c13.6-13.6,14.6-35.7,1.5-49.8c-13.8-14.8-36.9-15.1-51-0.9l-60,60
	c-17.1,17.1-26.7,40.3-26.7,64.5v127.8h111.1V381l79.5-79.5c17.1-17.1,26.7-40.3,26.7-64.5V88.1c0-20-16.6-36.2-36.8-35.4
	c-19.2,0.7-34.2,17.1-34.2,36.3v111.2"/>
<path class="st3" d="M475.2,52.7v191.4l-77.6,77.7l-26.8-27.7l60.2-60.2c8.9-8.9,12.4-21.6,10.1-33.2V88.9
	C441.1,69.7,456,53.3,475.2,52.7"/>
<path class="st4" d="M268.5,414.8h171.8V512H268.5V414.8z"/>
<circle class="st1" cx="400.3" cy="463.4" r="15"/>
</svg>
