<?xml version="1.0" encoding="utf-8"?>
<!-- Generator: Adobe Illustrator 22.0.0, SVG Export Plug-In . SVG Version: 6.00 Build 0)  -->
<svg version="1.1" id="Capa_1" xmlns="http://www.w3.org/2000/svg" xmlns:xlink="http://www.w3.org/1999/xlink" x="0px" y="0px"
	 viewBox="0 0 512 512" style="enable-background:new 0 0 512 512;" xml:space="preserve">
<style type="text/css">
	.st0{fill:#FCD18B;}
	.st1{fill:#D9EFFD;}
	.st2{fill:#37AE77;}
	.st3{fill:#FDE6C0;}
	.st4{fill:#265185;}
	.st5{fill:#FFDFCF;}
	.st6{fill:#094D83;}
	.st7{fill:#B2E0F9;}
</style>
<path class="st0" d="M319.1,293.5l-63.3-21.1l-63.3,21.1l0.5-66.7l-39.7-53.7l63.6-20.1l38.8-54.3l38.8,54.3l63.6,20.1l-39.6,53.7
	L319.1,293.5z"/>
<g>
	<rect x="241.1" y="0.5" class="st1" width="30" height="43"/>
	<rect x="422.1" y="180.9" class="st1" width="43" height="30"/>
	<rect x="47.1" y="180.9" class="st1" width="43" height="30"/>
	<rect x="372.7" y="56.3" transform="matrix(0.7071 -0.7071 0.7071 0.7071 66.0583 302.1194)" class="st1" width="50" height="30"/>
	<rect x="99.2" y="46.1" transform="matrix(0.7071 -0.7071 0.7071 0.7071 -16.8491 101.5671)" class="st1" width="30" height="50"/>
</g>
<path class="st2" d="M189.6,511.5H0v-15c0-44.5,36.2-80.6,80.6-80.6H109c44.5,0,80.6,36.2,80.6,80.6V511.5z"/>
<path class="st3" d="M94.7,445.9c-31.8,0-57.6-25.9-57.6-57.6s25.9-57.6,57.6-57.6s57.6,25.9,57.6,57.6S126.5,445.9,94.7,445.9z"/>
<path class="st4" d="M512,511.5H322.4v-15c0-44.5,36.2-80.6,80.6-80.6h28.4c44.5,0,80.6,36.2,80.6,80.6V511.5z"/>
<path class="st5" d="M417.1,445.9c-31.8,0-57.6-25.9-57.6-57.6s25.9-57.6,57.6-57.6s57.6,25.9,57.6,57.6S448.9,445.9,417.1,445.9z"
	/>
<path class="st2" d="M512,511.5H322.4v-15c0-44.5,36.2-80.6,80.6-80.6h28.4c44.5,0,80.6,36.2,80.6,80.6V511.5z"/>
<path class="st3" d="M417.1,445.9c-31.8,0-57.6-25.9-57.6-57.6s25.9-57.6,57.6-57.6s57.6,25.9,57.6,57.6S448.9,445.9,417.1,445.9z"
	/>
<path class="st6" d="M350.7,511.5H161.1v-15c0-44.5,36.2-80.6,80.6-80.6h28.4c44.5,0,80.6,36.2,80.6,80.6V511.5z"/>
<path class="st3" d="M255.8,445.9c-31.8,0-57.6-25.9-57.6-57.6s25.9-57.6,57.6-57.6s57.6,25.9,57.6,57.6S287.6,445.9,255.8,445.9z"
	/>
<g>
	<rect x="256" y="0.5" class="st7" width="15" height="43"/>
	<rect x="422.1" y="180.9" class="st7" width="43" height="30"/>
	<rect x="372.7" y="56.3" transform="matrix(0.7071 -0.7071 0.7071 0.7071 66.0583 302.1194)" class="st7" width="50" height="30"/>
</g>
</svg>
