<?xml version="1.0" encoding="iso-8859-1"?>
<!-- Generator: Adobe Illustrator 19.0.0, SVG Export Plug-In . SVG Version: 6.00 Build 0)  -->
<svg xmlns="http://www.w3.org/2000/svg" xmlns:xlink="http://www.w3.org/1999/xlink" version="1.1" id="Capa_1" x="0px" y="0px" viewBox="0 0 479.97 479.97" style="enable-background:new 0 0 479.97 479.97;" xml:space="preserve" width="512px" height="512px">
<g>
	<g>
		<g>
			<path d="M53.415,197.929c4.628,3.786,9.665,7.041,15.018,9.705l0-0.016c2.807,1.392,6.169,1.017,8.6-0.96l101.68-82.64     c2.432-1.977,3.486-5.191,2.696-8.224c-2.836-10.898-7.955-21.069-15.016-29.84c47.309-18.573,99.891-18.573,147.2,0     c-7.061,8.771-12.18,18.942-15.016,29.84c-0.79,3.033,0.264,6.247,2.696,8.224l101.68,82.64c2.431,1.977,5.793,2.352,8.6,0.96     c39.527-19.562,55.713-67.464,36.15-106.991c-2.67-5.394-5.941-10.469-9.75-15.129c-0.224-0.28-0.456-0.552-0.704-0.8     c-0.104-0.128-0.224-0.248-0.336-0.376c-2.976-3.144-6.12-6.288-9.264-9.264l-0.424-0.376l-0.328-0.288     c-104.819-99.146-268.814-99.198-373.696-0.12c-0.168,0.136-0.328,0.288-0.488,0.44l-0.392,0.344     c-3.144,2.976-6.288,6.12-9.264,9.264c-0.128,0.136-0.248,0.272-0.368,0.416c-0.12,0.144-0.352,0.4-0.536,0.616     C14.176,119.551,19.218,169.952,53.415,197.929z M54.457,95.562l0.28-0.312c2.68-2.824,5.504-5.648,8.32-8.328l0.488-0.44     l0.44-0.384c98.713-93.482,253.287-93.482,352,0c0.136,0.128,0.28,0.248,0.424,0.368l0.328,0.296     c2.824,2.672,5.64,5.496,8.32,8.312c0.144,0.168,0.28,0.328,0.432,0.48c20.219,24.631,19.139,60.409-2.528,83.776     c-4.133,4.494-8.888,8.373-14.12,11.52l-93.328-75.864c3.458-9.949,9.329-18.885,17.088-26.008     c3.252-2.991,3.463-8.052,0.472-11.304c-0.715-0.777-1.577-1.406-2.536-1.848c-57.465-26.474-123.639-26.474-181.104,0     c-4.012,1.851-5.763,6.604-3.912,10.616c0.443,0.959,1.071,1.821,1.848,2.536c7.759,7.123,13.63,16.059,17.088,26.008     l-93.352,75.872c-19.262-11.591-31.064-32.408-31.12-54.888C39.957,121.227,45.075,106.935,54.457,95.562z" fill="#37af77"/>
			<polygon points="247.985,263.97 231.985,263.97 231.985,295.97 199.985,295.97 199.985,311.97 231.985,311.97 231.985,343.97      247.985,343.97 247.985,311.97 279.985,311.97 279.985,295.97 247.985,295.97    " fill="#37af77"/>
			<path d="M239.985,231.97c-39.764,0-72,32.235-72,72c0,39.764,32.236,72,72,72c39.765,0,72-32.236,72-72     C311.937,264.226,279.729,232.019,239.985,231.97z M239.985,359.97c-30.928,0-56-25.072-56-56c0-30.928,25.072-56,56-56     c30.928,0,56,25.072,56,56C295.95,334.883,270.898,359.935,239.985,359.97z" fill="#37af77"/>
			<path d="M287.985,184.17v-24.2c0-13.255-10.745-24-24-24h-48c-13.255,0-24,10.745-24,24v24.2     c-98.359,4.387-175.88,85.344-176,183.8v64c0,4.418,3.582,8,8,8h40c0.026,22.08,17.92,39.974,40,40h32     c22.08-0.026,39.974-17.92,40-40h128c0.026,22.08,17.92,39.974,40,40h32c22.08-0.026,39.974-17.92,40-40h40c4.418,0,8-3.582,8-8     v-64C463.865,269.514,386.344,188.557,287.985,184.17z M207.985,159.97c0-4.418,3.582-8,8-8h48c4.418,0,8,3.582,8,8v24h-64     V159.97z M135.985,463.97h-32c-13.255,0-24-10.745-24-24h80C159.985,453.225,149.24,463.97,135.985,463.97z M375.985,463.97h-32     c-13.255,0-24-10.745-24-24h80C399.985,453.225,389.24,463.97,375.985,463.97z M447.985,423.97h-416v-56     c0.101-92.742,75.258-167.899,168-168h80c92.742,0.101,167.899,75.258,168,168V423.97z" fill="#37af77"/>
		</g>
	</g>
</g>
<g>
</g>
<g>
</g>
<g>
</g>
<g>
</g>
<g>
</g>
<g>
</g>
<g>
</g>
<g>
</g>
<g>
</g>
<g>
</g>
<g>
</g>
<g>
</g>
<g>
</g>
<g>
</g>
<g>
</g>
</svg>
